# xmcd CD database file
#
# Track frame offsets:
#	150
#	14481
#	39103
#	61067
#	80328
#	99846
#	113876
#	124792
#	140164
#	156359
#	177634
#
# Disc length: 2632 seconds
#
# Revision: 1
# Processed by: cddbd v1.5.1PL0 Copyright (c) Steve Scherf et al.
# Submitted via: CDex 1.51
#
DISCID=8c0a460b
DTITLE=大藤桂子 - 月夜の物語 - Moonlight Tale
DYEAR=2004
DGENRE=New Age
TTITLE0=Smile
TTITLE1=Swing
TTITLE2=Libertus
TTITLE3=桜雪
TTITLE4=Blue
TTITLE5=古の月
TTITLE6=月の子守唄
TTITLE7=おだやかな日々
TTITLE8=Waltz
TTITLE9=Life
TTITLE10=祈り
EXTD=YEAR: 2004
EXTT0=
EXTT1=
EXTT2=
EXTT3=
EXTT4=
EXTT5=
EXTT6=
EXTT7=
EXTT8=
EXTT9=
EXTT10=
PLAYORDER=
